<?xml version="1.0" encoding="utf-8"?>
<!-- Generator: Adobe Illustrator 17.1.0, SVG Export Plug-In . SVG Version: 6.00 Build 0)  -->
<!DOCTYPE svg PUBLIC "-//W3C//DTD SVG 1.1//EN" "http://www.w3.org/Graphics/SVG/1.1/DTD/svg11.dtd">
<svg version="1.1" id="Capa_1" xmlns="http://www.w3.org/2000/svg" xmlns:xlink="http://www.w3.org/1999/xlink" x="0px" y="0px"
	 width="1000px" height="1000px" viewBox="0 0 1000 1000" enable-background="new 0 0 1000 1000" xml:space="preserve">
<g>
	<path d="M139.2,264.6c-47.5,71.7-72.7,155.2-72.7,241.5c0,59,11.6,116.3,34.4,170.3c22,52.1,53.6,98.9,93.7,139
		c40.1,40.1,86.9,71.7,139,93.7c54,22.8,111.3,34.4,170.3,34.4s116.3-11.6,170.3-34.4c52.1-22,98.9-53.6,139-93.7
		c40.1-40.1,71.7-86.9,93.7-139c22.8-54,34.4-111.3,34.4-170.3c0-50.4-8.5-99.8-25.3-146.9c-16.2-45.5-39.8-87.8-70.1-125.7
		c-30-37.5-65.6-69.7-106-95.6c-41.1-26.4-86-45.6-133.4-57l-39.8,165.3c57.3,13.8,109.3,46.9,146.3,93.4
		c38.1,47.8,58.3,105.4,58.3,166.7c0,71.4-27.8,138.6-78.3,189.1c-50.5,50.5-117.7,78.3-189.1,78.3s-138.6-27.8-189.1-78.3
		c-50.5-50.5-78.3-117.7-78.3-189.1c0-52.8,15.3-103.8,44.3-147.6c6.5-9.9,13.7-19.2,21.4-28.1L399.1,456L508,70.1l-406.4,0.1
		l95.6,124C175.7,215.5,156.2,239,139.2,264.6z"/>
</g>
</svg>
