<?xml version="1.0" encoding="utf-8"?>
<!-- Generator: Adobe Illustrator 15.0.2, SVG Export Plug-In . SVG Version: 6.00 Build 0)  -->
<!DOCTYPE svg PUBLIC "-//W3C//DTD SVG 1.1//EN" "http://www.w3.org/Graphics/SVG/1.1/DTD/svg11.dtd">
<svg version="1.1" id="Layer_1" xmlns="http://www.w3.org/2000/svg" xmlns:xlink="http://www.w3.org/1999/xlink" x="0px" y="0px"
	 width="512.002px" height="526.229px" viewBox="0 0 512.002 526.229" enable-background="new 0 0 512.002 526.229"
	 xml:space="preserve">
<path d="M451.419,288.771c1.053-8.415,1.85-16.972,1.85-25.656s-0.797-17.234-1.85-25.656l55.654-43.54
	c5.011-3.95,6.449-11.055,3.16-16.843L457.611,85.91c-3.289-5.659-10.124-8.029-16.06-5.659l-65.509,26.44
	c-13.554-10.394-28.405-19.207-44.465-25.913l-9.867-69.729C320.529,4.869,315.134,0,308.556,0H203.31
	c-6.577,0-11.974,4.869-13.027,11.049l-9.866,69.729c-16.047,6.706-30.911,15.391-44.465,25.913l-65.516-26.44
	c-5.916-2.235-12.757,0-16.046,5.659L1.767,177.075c-3.289,5.659-1.844,12.765,3.154,16.843l55.52,43.54
	c-1.054,8.422-1.844,16.972-1.844,25.656s0.79,17.241,1.844,25.656l-55.52,43.54c-4.998,3.957-6.443,11.049-3.154,16.843
	l52.623,91.165c3.289,5.666,10.13,8.029,16.046,5.666l65.516-26.44c13.554,10.381,28.418,19.194,44.465,25.9l9.866,69.735
	c1.054,6.18,6.45,11.049,13.027,11.049h105.246c6.578,0,11.974-4.869,13.027-11.049l9.867-69.735
	c16.046-6.706,30.91-15.391,44.464-25.9l65.509,26.44c5.923,2.235,12.771,0,16.06-5.666l52.623-91.165
	c3.289-5.666,1.837-12.758-3.16-16.843L451.419,288.771z M255.933,355.204c-50.914,0-92.09-41.176-92.09-92.09
	s41.176-92.09,92.09-92.09s92.09,41.176,92.09,92.09S306.847,355.204,255.933,355.204z"/>
</svg>
